<svg xmlns="http://www.w3.org/2000/svg" xmlns:xlink="http://www.w3.org/1999/xlink" version="1.1" width="1340.0000122070314" height="749.9999877929688" style="width: 1340.0000122070314px; height: 749.9999877929688px; background: #111111" viewBox="148.9999938964844 92.00000305175783 1340.0000122070314 749.9999877929688"><style id="v-3" type="text/css">        .joint-element .scalable * {            vector-effect: non-scaling-stroke;        }    </style><defs joint-selector="defs"><marker id="v-2-527367903" orient="auto" overflow="visible" markerUnits="userSpaceOnUse"><path id="v-53" stroke="#cccccc" fill="#cccccc" transform="rotate(180)" d="M 20 -10 0 0 20 10 Z"></path></marker></defs><g joint-selector="layers"  transform="matrix(1,0,0,1,0,0)"><g  style="pointer-events: none;"></g><g ></g><g  style="user-select: none;"><!--z-index:0--><!--z-index:1--><!--z-index:2--><!--z-index:3--><!--z-index:4--><!--z-index:5--><!--z-index:6--><!--z-index:7--><g   id="j_11"  transform="translate(20,1006)"><g id="v-70"><text  id="v-71" font-size="24px" xml:space="preserve" y="0.8em" font-weight="normal" text-anchor="start" fill="#cccccc" pointer-events="none" display="block" font-family="Tahoma, Verdana, Helvetica, Arial"></text></g></g><!--z-index:8--><g   id="j_10"  transform="translate(20,972)"><g id="v-68"><text  id="v-69" font-size="24px" xml:space="preserve" y="0.8em" font-weight="normal" text-anchor="start" fill="#cccccc" pointer-events="none" display="block" font-family="Tahoma, Verdana, Helvetica, Arial"></text></g></g><!--z-index:9--><g   id="j_9"  transform="translate(20,926)"><g id="v-66"><text  id="v-67" font-size="36px" xml:space="preserve" y="0.8em" font-weight="normal" text-anchor="start" fill="#cccccc" pointer-events="none" display="block" font-family="Tahoma, Verdana, Helvetica, Arial"></text></g></g><!--z-index:10--><g   id="j_12"  transform="translate(199,142)" style=""><g  id="v-75" style="opacity: 1;"><rect  id="v-76" rx="1" ry="1" stroke-width="2" pointer-events="visiblePainted" fill="#111111" stroke="#cccccc" stroke-dasharray="" width="450" height="300" style="fill: rgb(17, 17, 17); stroke: rgb(204, 204, 204);"></rect><text  id="v-77" font-size="33.599999999999994px" xml:space="preserve" y="86.9" font-weight="bold" text-anchor="middle" pointer-events="visible" font-family="Tahoma, Verdana, Helvetica, Arial" fill="#cccccc" dominant-baseline="hanging" transform="matrix(1,0,0,1,225,0)" style="fill: rgb(204, 204, 204);"><tspan dy="0" >Pet Owner</tspan></text><text  id="v-78" font-size="16.799999999999997px" xml:space="preserve" y="128.5" text-anchor="middle" font-family="Tahoma, Verdana, Helvetica, Arial" fill="#cccccc" dominant-baseline="hanging" transform="matrix(1,0,0,1,225,0)" style="display: block; fill: rgb(204, 204, 204);"><tspan dy="0" >[Person]</tspan></text><text  id="v-79" font-size="24px" xml:space="preserve" y="160.3" text-anchor="middle" font-family="Tahoma, Verdana, Helvetica, Arial" fill="#cccccc" dominant-baseline="hanging" transform="matrix(1,0,0,1,225,0)" style="display: block; fill: rgb(204, 204, 204);"><tspan dy="0" >Manages their pets and</tspan><tspan dy="1.2em" x="0" >appointments</tspan></text><g  id="v-80" color="#cccccc" transform="matrix(1,0,0,1,222.5,268)" display="none" style="fill: rgb(204, 204, 204);"><g ></g><g ></g><g ></g><g ></g></g><image  id="v-81"></image></g></g><!--z-index:11--><g   id="j_13"  transform="translate(199,492)" style=""><g  id="v-85" style="opacity: 1;"><rect  id="v-86" rx="1" ry="1" stroke-width="2" pointer-events="visiblePainted" fill="#111111" stroke="#cccccc" stroke-dasharray="" width="450" height="300" style="fill: rgb(17, 17, 17); stroke: rgb(204, 204, 204);"></rect><text  id="v-87" font-size="33.599999999999994px" xml:space="preserve" y="101.30000000000001" font-weight="bold" text-anchor="middle" pointer-events="visible" font-family="Tahoma, Verdana, Helvetica, Arial" fill="#cccccc" dominant-baseline="hanging" transform="matrix(1,0,0,1,225,0)" style="fill: rgb(204, 204, 204);"><tspan dy="0" >Veterinarian</tspan></text><text  id="v-88" font-size="16.799999999999997px" xml:space="preserve" y="142.9" text-anchor="middle" font-family="Tahoma, Verdana, Helvetica, Arial" fill="#cccccc" dominant-baseline="hanging" transform="matrix(1,0,0,1,225,0)" style="display: block; fill: rgb(204, 204, 204);"><tspan dy="0" >[Person]</tspan></text><text  id="v-89" font-size="24px" xml:space="preserve" y="174.7" text-anchor="middle" font-family="Tahoma, Verdana, Helvetica, Arial" fill="#cccccc" dominant-baseline="hanging" transform="matrix(1,0,0,1,225,0)" style="display: block; fill: rgb(204, 204, 204);"><tspan dy="0" >Provides veterinary care</tspan></text><g  id="v-90" color="#cccccc" transform="matrix(1,0,0,1,222.5,268)" display="none" style="fill: rgb(204, 204, 204);"><g ></g><g ></g><g ></g><g ></g></g><image  id="v-91"></image></g></g><!--z-index:12--><g   id="j_14"  transform="translate(989,317)" style=""><g  id="v-95" style="opacity: 1;"><rect  id="v-96" rx="1" ry="1" stroke-width="2" pointer-events="visiblePainted" fill="#111111" stroke="#cccccc" stroke-dasharray="" width="450" height="300" style="fill: rgb(17, 17, 17); stroke: rgb(204, 204, 204);"></rect><text  id="v-97" font-size="33.599999999999994px" xml:space="preserve" y="86.9" font-weight="bold" text-anchor="middle" pointer-events="visible" font-family="Tahoma, Verdana, Helvetica, Arial" fill="#cccccc" dominant-baseline="hanging" transform="matrix(1,0,0,1,225,0)" style="fill: rgb(204, 204, 204);"><tspan dy="0" >PetClinic</tspan></text><text  id="v-98" font-size="16.799999999999997px" xml:space="preserve" y="128.5" text-anchor="middle" font-family="Tahoma, Verdana, Helvetica, Arial" fill="#cccccc" dominant-baseline="hanging" transform="matrix(1,0,0,1,225,0)" style="display: block; fill: rgb(204, 204, 204);"><tspan dy="0" >[Software System]</tspan></text><text  id="v-99" font-size="24px" xml:space="preserve" y="160.3" text-anchor="middle" font-family="Tahoma, Verdana, Helvetica, Arial" fill="#cccccc" dominant-baseline="hanging" transform="matrix(1,0,0,1,225,0)" style="display: block; fill: rgb(204, 204, 204);"><tspan dy="0" >Veterinary practice management</tspan><tspan dy="1.2em" x="0" >system</tspan></text><g  id="v-100" color="#cccccc" transform="matrix(1,0,0,1,210,268)" display="none" style="fill: rgb(204, 204, 204);"><g  transform="translate(5 0)"><svg xmlns="http://www.w3.org/2000/svg" width="20" height="20" fill="currentColor" viewBox="0 0 16 16"><path fill-rule="evenodd" d="M6.5 12a5.5 5.5 0 1 0 0-11 5.5 5.5 0 0 0 0 11zM13 6.5a6.5 6.5 0 1 1-13 0 6.5 6.5 0 0 1 13 0z"></path><path d="M10.344 11.742c.03.04.062.078.098.115l3.85 3.85a1 1 0 0 0 1.415-1.414l-3.85-3.85a1.007 1.007 0 0 0-.115-.1 6.538 6.538 0 0 1-1.398 1.4z"></path><path fill-rule="evenodd" d="M6.5 3a.5.5 0 0 1 .5.5V6h2.5a.5.5 0 0 1 0 1H7v2.5a.5.5 0 0 1-1 0V7H3.5a.5.5 0 0 1 0-1H6V3.5a.5.5 0 0 1 .5-.5z"></path></svg></g><g ></g><g ></g><g ></g></g><image  id="v-101"></image></g></g><!--z-index:13--><g   id="j_15"  style="opacity: 1;"><path fill="none" cursor="pointer" stroke="transparent" stroke-linecap="round" joint-selector="wrapper" id="v-113" stroke-width="10" stroke-linejoin="round" d="M 649 292 L 809 292 C 815.6666666666666 292 822 293.3333333333333 828 296 L 989 367.32"></path><path fill="none" pointer-events="none" joint-selector="line" id="v-112" stroke="#cccccc" stroke-width="2" stroke-linejoin="round" stroke-dasharray="8 8" d="M 649 292 L 809 292 C 815.6666666666666 292 822 293.3333333333333 828 296 L 989 367.32" marker-end="url(#v-2-527367903)"></path><g id="v-105" ><g id="v-106"  label-idx="0" cursor="move" transform="matrix(1,0,0,1,818.787109375,293.0078125)" style="cursor: default;"><rect joint-selector="rect" id="v-109" fill="#111111" rx="3" ry="3" x="-96.25546264648438" y="-31.349998474121094" width="192.51092529296875" height="58.19999694824219" pointer-events="none"  style="display: block;"></rect><text joint-selector="text" id="v-108" font-size="24px" xml:space="preserve" fill="#cccccc" text-anchor="middle" pointer-events="none" font-family="Tahoma, Verdana, Helvetica, Arial" font-weight="normal"  style="display: block;"><tspan dy="-0.3em" >Manages pets and</tspan><tspan dy="1.2em" x="0" >visits</tspan></text></g><g id="v-107"  label-idx="1" cursor="move" transform="matrix(1,0,0,1,808.787109375,319.4078369140625)" style="cursor: default;"><rect joint-selector="rect" id="v-111" fill="#ffffff" rx="3" ry="3" x="-1.1368683772161603e-13" y="0" width="0" height="0"  display="none"></rect><text joint-selector="text" id="v-110" fill="#000000" font-size="14" text-anchor="middle" text-vertical-anchor="middle" pointer-events="none"></text></g></g></g><!--z-index:14--><g   id="j_16"  style="opacity: 1;"><path fill="none" cursor="pointer" stroke="transparent" stroke-linecap="round" joint-selector="wrapper" id="v-125" stroke-width="10" stroke-linejoin="round" d="M 649 642 L 809 642 C 815.6666666666666 642 822 640.6666666666666 828 638 L 989 566.68"></path><path fill="none" pointer-events="none" joint-selector="line" id="v-124" stroke="#cccccc" stroke-width="2" stroke-linejoin="round" stroke-dasharray="8 8" d="M 649 642 L 809 642 C 815.6666666666666 642 822 640.6666666666666 828 638 L 989 566.68" marker-end="url(#v-2-527367903)"></path><g id="v-117" ><g id="v-118"  label-idx="0" cursor="move" transform="matrix(1,0,0,1,818.787109375,640.9921875)" style="cursor: default;"><rect joint-selector="rect" id="v-121" fill="#111111" rx="3" ry="3" x="-95.3285140991211" y="-45.749996185302734" width="190.6570281982422" height="87" pointer-events="none"  style="display: block;"></rect><text joint-selector="text" id="v-120" font-size="24px" xml:space="preserve" fill="#cccccc" text-anchor="middle" pointer-events="none" font-family="Tahoma, Verdana, Helvetica, Arial" font-weight="normal"  style="display: block;"><tspan dy="-0.8999999999999999em" >Manages</tspan><tspan dy="1.2em" x="0" >appointments and</tspan><tspan dy="1.2em" x="0" >records</tspan></text></g><g id="v-119"  label-idx="1" cursor="move" transform="matrix(1,0,0,1,808.787109375,681.7921752929688)" style="cursor: default;"><rect joint-selector="rect" id="v-123" fill="#ffffff" rx="3" ry="3" x="-1.1368683772161603e-13" y="-1.1368683772161603e-13" width="0" height="0"  display="none"></rect><text joint-selector="text" id="v-122" fill="#000000" font-size="14" text-anchor="middle" text-vertical-anchor="middle" pointer-events="none"></text></g></g></g><!--z-index:15--></g><g  style="user-select: none;"></g><g ></g><g  display="none"></g></g></svg>