<svg xmlns="http://www.w3.org/2000/svg" xmlns:xlink="http://www.w3.org/1999/xlink" version="1.1" width="3020.000072288513" height="749.9999874114991" style="width: 3020.000072288513px; height: 749.9999874114991px; background: #ffffff" viewBox="149.00000705718995 93.000004196167 3020.000072288513 749.9999874114991"><style id="v-3" type="text/css">        .joint-element .scalable * {            vector-effect: non-scaling-stroke;        }    </style><defs joint-selector="defs"><marker id="v-21252848929" orient="auto" overflow="visible" markerUnits="userSpaceOnUse"><path id="v-53" stroke="#444444" fill="#444444" transform="rotate(180)" d="M 20 -10 0 0 20 10 Z"></path></marker></defs><g joint-selector="layers"  transform="matrix(1,0,0,1,0,0)"><g  style="pointer-events: none;"></g><g ></g><g  style="user-select: none;"><!--z-index:0--><!--z-index:1--><!--z-index:2--><!--z-index:3--><!--z-index:4--><!--z-index:5--><!--z-index:6--><!--z-index:7--><!--z-index:8--><!--z-index:9--><!--z-index:10--><!--z-index:11--><!--z-index:12--><g   id="j_19"  transform="translate(20,1006)"><g id="v-130"><text  id="v-131" font-size="24px" xml:space="preserve" y="0.8em" font-weight="normal" text-anchor="start" fill="#444444" pointer-events="none" display="block" font-family="Tahoma, Verdana, Helvetica, Arial"></text></g></g><!--z-index:13--><g   id="j_18"  transform="translate(20,972)"><g id="v-128"><text  id="v-129" font-size="24px" xml:space="preserve" y="0.8em" font-weight="normal" text-anchor="start" fill="#444444" pointer-events="none" display="block" font-family="Tahoma, Verdana, Helvetica, Arial"></text></g></g><!--z-index:14--><g   id="j_17"  transform="translate(20,926)"><g id="v-126"><text  id="v-127" font-size="36px" xml:space="preserve" y="0.8em" font-weight="normal" text-anchor="start" fill="#444444" pointer-events="none" display="block" font-family="Tahoma, Verdana, Helvetica, Arial"></text></g></g><!--z-index:15--><g   id="j_20"  transform="translate(199,143)" style=""><g  id="v-135" style="opacity: 1;"><rect  id="v-136" rx="1" ry="1" stroke-width="2" pointer-events="visiblePainted" fill="#ffffff" stroke="#444444" stroke-dasharray="" width="450" height="300" style="fill: rgb(255, 255, 255); stroke: rgb(68, 68, 68);"></rect><text  id="v-137" font-size="33.599999999999994px" xml:space="preserve" y="86.9" font-weight="bold" text-anchor="middle" pointer-events="visible" font-family="Tahoma, Verdana, Helvetica, Arial" fill="#444444" dominant-baseline="hanging" transform="matrix(1,0,0,1,225,0)" style="fill: rgb(68, 68, 68);"><tspan dy="0" >Pet Owner</tspan></text><text  id="v-138" font-size="16.799999999999997px" xml:space="preserve" y="128.5" text-anchor="middle" font-family="Tahoma, Verdana, Helvetica, Arial" fill="#444444" dominant-baseline="hanging" transform="matrix(1,0,0,1,225,0)" style="display: block; fill: rgb(68, 68, 68);"><tspan dy="0" >[Person]</tspan></text><text  id="v-139" font-size="24px" xml:space="preserve" y="160.3" text-anchor="middle" font-family="Tahoma, Verdana, Helvetica, Arial" fill="#444444" dominant-baseline="hanging" transform="matrix(1,0,0,1,225,0)" style="display: block; fill: rgb(68, 68, 68);"><tspan dy="0" >Manages their pets and</tspan><tspan dy="1.2em" x="0" >appointments</tspan></text><g  id="v-140" color="#444444" transform="matrix(1,0,0,1,222.5,268)" display="none" style="fill: rgb(68, 68, 68);"><g ></g><g ></g><g ></g><g ></g></g><image  id="v-141"></image></g></g><!--z-index:16--><g   id="j_21"  transform="translate(199,493)" style=""><g  id="v-145" style="opacity: 1;"><rect  id="v-146" rx="1" ry="1" stroke-width="2" pointer-events="visiblePainted" fill="#ffffff" stroke="#444444" stroke-dasharray="" width="450" height="300" style="fill: rgb(255, 255, 255); stroke: rgb(68, 68, 68);"></rect><text  id="v-147" font-size="33.599999999999994px" xml:space="preserve" y="101.30000000000001" font-weight="bold" text-anchor="middle" pointer-events="visible" font-family="Tahoma, Verdana, Helvetica, Arial" fill="#444444" dominant-baseline="hanging" transform="matrix(1,0,0,1,225,0)" style="fill: rgb(68, 68, 68);"><tspan dy="0" >Veterinarian</tspan></text><text  id="v-148" font-size="16.799999999999997px" xml:space="preserve" y="142.9" text-anchor="middle" font-family="Tahoma, Verdana, Helvetica, Arial" fill="#444444" dominant-baseline="hanging" transform="matrix(1,0,0,1,225,0)" style="display: block; fill: rgb(68, 68, 68);"><tspan dy="0" >[Person]</tspan></text><text  id="v-149" font-size="24px" xml:space="preserve" y="174.7" text-anchor="middle" font-family="Tahoma, Verdana, Helvetica, Arial" fill="#444444" dominant-baseline="hanging" transform="matrix(1,0,0,1,225,0)" style="display: block; fill: rgb(68, 68, 68);"><tspan dy="0" >Provides veterinary care</tspan></text><g  id="v-150" color="#444444" transform="matrix(1,0,0,1,222.5,268)" display="none" style="fill: rgb(68, 68, 68);"><g ></g><g ></g><g ></g><g ></g></g><image  id="v-151"></image></g></g><!--z-index:17--><g   id="j_23"  transform="translate(989,268)" style="; opacity: 1;"><g id="v-162"><rect  id="v-163" width="2130" height="479" rx="0" ry="0" stroke-width="2" pointer-events="none" stroke="#444444" fill="#ffffff" opacity="1" stroke-dasharray=""></rect><text  id="v-164" font-size="33.599999999999994px" xml:space="preserve" y="440" font-weight="bold" text-anchor="start" pointer-events="visible" font-family="Tahoma, Verdana, Helvetica, Arial" fill="#444444" transform="matrix(1,0,0,1,15,0)"><tspan dy="0" >PetClinic</tspan></text><text  id="v-165" font-size="16.799999999999997px" xml:space="preserve" y="464" font-weight="normal" text-anchor="start" pointer-events="visible" font-family="Tahoma, Verdana, Helvetica, Arial" fill="#444444" transform="matrix(1,0,0,1,15,0)"><tspan dy="0" >[Software System]</tspan></text><image  id="v-166" pointer-events="visible"></image></g></g><!--z-index:18--><g   id="j_22"  transform="translate(1039,318)" style=""><g  id="v-155" style="opacity: 1;"><rect  id="v-156" rx="1" ry="1" stroke-width="2" pointer-events="visiblePainted" fill="#ffffff" stroke="#444444" stroke-dasharray="" width="450" height="300" style="fill: rgb(255, 255, 255); stroke: rgb(68, 68, 68);"></rect><text  id="v-157" font-size="33.599999999999994px" xml:space="preserve" y="101.30000000000001" font-weight="bold" text-anchor="middle" pointer-events="visible" font-family="Tahoma, Verdana, Helvetica, Arial" fill="#444444" dominant-baseline="hanging" transform="matrix(1,0,0,1,225,0)" style="fill: rgb(68, 68, 68);"><tspan dy="0" >Frontend</tspan></text><text  id="v-158" font-size="16.799999999999997px" xml:space="preserve" y="142.9" text-anchor="middle" font-family="Tahoma, Verdana, Helvetica, Arial" fill="#444444" dominant-baseline="hanging" transform="matrix(1,0,0,1,225,0)" style="display: block; fill: rgb(68, 68, 68);"><tspan dy="0" >[Container: Angular]</tspan></text><text  id="v-159" font-size="24px" xml:space="preserve" y="174.7" text-anchor="middle" font-family="Tahoma, Verdana, Helvetica, Arial" fill="#444444" dominant-baseline="hanging" transform="matrix(1,0,0,1,225,0)" style="display: block; fill: rgb(68, 68, 68);"><tspan dy="0" >Single-page application</tspan></text><g  id="v-160" color="#444444" transform="matrix(1,0,0,1,222.5,268)" display="none" style="fill: rgb(68, 68, 68);"><g ></g><g ></g><g ></g><g ></g></g><image  id="v-161"></image></g></g><!--z-index:19--><g   id="j_24"  transform="translate(1829,318)" style=""><g  id="v-170" style="opacity: 1;"><rect  id="v-171" rx="1" ry="1" stroke-width="2" pointer-events="visiblePainted" fill="#ffffff" stroke="#444444" stroke-dasharray="" width="450" height="300" style="fill: rgb(255, 255, 255); stroke: rgb(68, 68, 68);"></rect><text  id="v-172" font-size="33.599999999999994px" xml:space="preserve" y="101.30000000000001" font-weight="bold" text-anchor="middle" pointer-events="visible" font-family="Tahoma, Verdana, Helvetica, Arial" fill="#444444" dominant-baseline="hanging" transform="matrix(1,0,0,1,225,0)" style="fill: rgb(68, 68, 68);"><tspan dy="0" >Backend</tspan></text><text  id="v-173" font-size="16.799999999999997px" xml:space="preserve" y="142.9" text-anchor="middle" font-family="Tahoma, Verdana, Helvetica, Arial" fill="#444444" dominant-baseline="hanging" transform="matrix(1,0,0,1,225,0)" style="display: block; fill: rgb(68, 68, 68);"><tspan dy="0" >[Container: Java / Spring Boot]</tspan></text><text  id="v-174" font-size="24px" xml:space="preserve" y="174.7" text-anchor="middle" font-family="Tahoma, Verdana, Helvetica, Arial" fill="#444444" dominant-baseline="hanging" transform="matrix(1,0,0,1,225,0)" style="display: block; fill: rgb(68, 68, 68);"><tspan dy="0" >REST API</tspan></text><g  id="v-175" color="#444444" transform="matrix(1,0,0,1,210,268)" display="none" style="fill: rgb(68, 68, 68);"><g  transform="translate(5 0)"><svg xmlns="http://www.w3.org/2000/svg" width="20" height="20" fill="currentColor" viewBox="0 0 16 16"><path fill-rule="evenodd" d="M6.5 12a5.5 5.5 0 1 0 0-11 5.5 5.5 0 0 0 0 11zM13 6.5a6.5 6.5 0 1 1-13 0 6.5 6.5 0 0 1 13 0z"></path><path d="M10.344 11.742c.03.04.062.078.098.115l3.85 3.85a1 1 0 0 0 1.415-1.414l-3.85-3.85a1.007 1.007 0 0 0-.115-.1 6.538 6.538 0 0 1-1.398 1.4z"></path><path fill-rule="evenodd" d="M6.5 3a.5.5 0 0 1 .5.5V6h2.5a.5.5 0 0 1 0 1H7v2.5a.5.5 0 0 1-1 0V7H3.5a.5.5 0 0 1 0-1H6V3.5a.5.5 0 0 1 .5-.5z"></path></svg></g><g ></g><g ></g><g ></g></g><image  id="v-176"></image></g></g><!--z-index:20--><g   id="j_25"  transform="translate(2619,318)" style=""><g  id="v-177" style="opacity: 1;"><rect  id="v-178" rx="1" ry="1" stroke-width="2" pointer-events="visiblePainted" fill="#ffffff" stroke="#444444" stroke-dasharray="" width="450" height="300" style="fill: rgb(255, 255, 255); stroke: rgb(68, 68, 68);"></rect><text  id="v-179" font-size="33.599999999999994px" xml:space="preserve" y="101.30000000000001" font-weight="bold" text-anchor="middle" pointer-events="visible" font-family="Tahoma, Verdana, Helvetica, Arial" fill="#444444" dominant-baseline="hanging" transform="matrix(1,0,0,1,225,0)" style="fill: rgb(68, 68, 68);"><tspan dy="0" >Database</tspan></text><text  id="v-180" font-size="16.799999999999997px" xml:space="preserve" y="142.9" text-anchor="middle" font-family="Tahoma, Verdana, Helvetica, Arial" fill="#444444" dominant-baseline="hanging" transform="matrix(1,0,0,1,225,0)" style="display: block; fill: rgb(68, 68, 68);"><tspan dy="0" >[Container: PostgreSQL]</tspan></text><text  id="v-181" font-size="24px" xml:space="preserve" y="174.7" text-anchor="middle" font-family="Tahoma, Verdana, Helvetica, Arial" fill="#444444" dominant-baseline="hanging" transform="matrix(1,0,0,1,225,0)" style="display: block; fill: rgb(68, 68, 68);"><tspan dy="0" >Stores all data</tspan></text><g  id="v-182" color="#444444" transform="matrix(1,0,0,1,222.5,268)" display="none" style="fill: rgb(68, 68, 68);"><g ></g><g ></g><g ></g><g ></g></g><image  id="v-183"></image></g></g><!--z-index:21--><g   id="j_26"  style="opacity: 1;"><path fill="none" cursor="pointer" stroke="transparent" stroke-linecap="round" joint-selector="wrapper" id="v-192" stroke-width="10" stroke-linejoin="round" d="M 649 293 L 979 293 C 985.6666666666665 293 991.6666666666665 294.66666666666663 997 298 L 1039 324.82"></path><path fill="none" pointer-events="none" joint-selector="line" id="v-191" stroke="#444444" stroke-width="2" stroke-linejoin="round" stroke-dasharray="8 8" d="M 649 293 L 979 293 C 985.6666666666665 293 991.6666666666665 294.66666666666663 997 298 L 1039 324.82" marker-end="url(#v-21252848929)"></path><g id="v-184" ><g id="v-185"  label-idx="0" cursor="move" transform="matrix(1,0,0,1,818.7861328125,293)" style="cursor: default;"><rect joint-selector="rect" id="v-188" fill="#ffffff" rx="3" ry="3" x="-24.90625" y="-16.799999237060547" width="49.8125" height="28" pointer-events="none"  style="display: block;"></rect><text joint-selector="text" id="v-187" font-size="24px" xml:space="preserve" fill="#444444" text-anchor="middle" pointer-events="none" font-family="Tahoma, Verdana, Helvetica, Arial" font-weight="normal"  style="display: block;"><tspan dy="0.3em" >Uses</tspan></text></g><g id="v-186"  label-idx="1" cursor="move" transform="matrix(1,0,0,1,808.7861328125,305)" style="cursor: default;"><rect joint-selector="rect" id="v-190" fill="#ffffff" rx="3" ry="3" x="0" y="0" width="0" height="0"  display="none"></rect><text joint-selector="text" id="v-189" fill="#000000" font-size="14" text-anchor="middle" text-vertical-anchor="middle" pointer-events="none"></text></g></g></g><!--z-index:22--><g   id="j_27"  style="opacity: 1;"><path fill="none" cursor="pointer" stroke="transparent" stroke-linecap="round" joint-selector="wrapper" id="v-201" stroke-width="10" stroke-linejoin="round" d="M 649 643 L 979 643 C 985.6666666666665 643 991.6666666666665 641.3333333333333 997 638 L 1039 611.18"></path><path fill="none" pointer-events="none" joint-selector="line" id="v-200" stroke="#444444" stroke-width="2" stroke-linejoin="round" stroke-dasharray="8 8" d="M 649 643 L 979 643 C 985.6666666666665 643 991.6666666666665 641.3333333333333 997 638 L 1039 611.18" marker-end="url(#v-21252848929)"></path><g id="v-193" ><g id="v-194"  label-idx="0" cursor="move" transform="matrix(1,0,0,1,818.7861328125,643)" style="cursor: default;"><rect joint-selector="rect" id="v-197" fill="#ffffff" rx="3" ry="3" x="-24.90625" y="-16.799999237060547" width="49.8125" height="28" pointer-events="none"  style="display: block;"></rect><text joint-selector="text" id="v-196" font-size="24px" xml:space="preserve" fill="#444444" text-anchor="middle" pointer-events="none" font-family="Tahoma, Verdana, Helvetica, Arial" font-weight="normal"  style="display: block;"><tspan dy="0.3em" >Uses</tspan></text></g><g id="v-195"  label-idx="1" cursor="move" transform="matrix(1,0,0,1,808.7861328125,655)" style="cursor: default;"><rect joint-selector="rect" id="v-199" fill="#ffffff" rx="3" ry="3" x="0" y="0" width="0" height="0"  display="none"></rect><text joint-selector="text" id="v-198" fill="#000000" font-size="14" text-anchor="middle" text-vertical-anchor="middle" pointer-events="none"></text></g></g></g><!--z-index:23--><g   id="j_28"  style="opacity: 1;"><path fill="none" cursor="pointer" stroke="transparent" stroke-linecap="round" joint-selector="wrapper" id="v-216" stroke-width="10" stroke-linejoin="round" d="M 1489 468 L 1829 468"></path><path fill="none" pointer-events="none" joint-selector="line" id="v-215" stroke="#444444" stroke-width="2" stroke-linejoin="round" stroke-dasharray="8 8" d="M 1489 468 L 1829 468" marker-end="url(#v-21252848929)"></path><g id="v-205" ><g id="v-206"  label-idx="0" cursor="move" transform="matrix(1,0,0,1,1659,454.6000061035156)" style="cursor: default;"><rect joint-selector="rect" id="v-210" fill="#ffffff" rx="3" ry="3" x="-76.375" y="-16.799999237060547" width="152.75" height="28" pointer-events="none"  style="display: block;"></rect><text joint-selector="text" id="v-209" font-size="24px" xml:space="preserve" fill="#444444" text-anchor="middle" pointer-events="none" font-family="Tahoma, Verdana, Helvetica, Arial" font-weight="normal"  style="display: block;"><tspan dy="0.3em" >REST API calls</tspan></text></g><g id="v-207"  label-idx="1" cursor="move" transform="matrix(1,0,0,1,1659,485)" style="cursor: default;"><rect joint-selector="rect" id="v-212" fill="#ffffff" rx="3" ry="3" x="-53.703125" y="-10.960000038146973" width="107.40625" height="20"  pointer-events="none" style="display: block;"></rect><text joint-selector="text" id="v-211" font-size="16.799999999999997px" xml:space="preserve" fill="#444444" text-anchor="middle" pointer-events="none" font-family="Tahoma, Verdana, Helvetica, Arial" font-weight="normal"  style="display: block;"><tspan dy="0.3em" >[HTTPS/JSON]</tspan></text></g><g id="v-208"  label-idx="2" cursor="move" transform="matrix(1,0,0,1,1649,493.3999938964844)" style="cursor: default;"><rect joint-selector="rect" id="v-214" fill="#ffffff" rx="3" ry="3" x="0" y="0" width="0" height="0"  display="none"></rect><text joint-selector="text" id="v-213" fill="#000000" font-size="14" text-anchor="middle" text-vertical-anchor="middle" pointer-events="none"></text></g></g></g><!--z-index:24--><g   id="j_29"  style="opacity: 1;"><path fill="none" cursor="pointer" stroke="transparent" stroke-linecap="round" joint-selector="wrapper" id="v-231" stroke-width="10" stroke-linejoin="round" d="M 2279 468 L 2619 468"></path><path fill="none" pointer-events="none" joint-selector="line" id="v-230" stroke="#444444" stroke-width="2" stroke-linejoin="round" stroke-dasharray="8 8" d="M 2279 468 L 2619 468" marker-end="url(#v-21252848929)"></path><g id="v-220" ><g id="v-221"  label-idx="0" cursor="move" transform="matrix(1,0,0,1,2449,454.6000061035156)" style="cursor: default;"><rect joint-selector="rect" id="v-225" fill="#ffffff" rx="3" ry="3" x="-68.109375" y="-16.799999237060547" width="136.21875" height="28" pointer-events="none"  style="display: block;"></rect><text joint-selector="text" id="v-224" font-size="24px" xml:space="preserve" fill="#444444" text-anchor="middle" pointer-events="none" font-family="Tahoma, Verdana, Helvetica, Arial" font-weight="normal"  style="display: block;"><tspan dy="0.3em" >Reads/writes</tspan></text></g><g id="v-222"  label-idx="1" cursor="move" transform="matrix(1,0,0,1,2449,485)" style="cursor: default;"><rect joint-selector="rect" id="v-227" fill="#ffffff" rx="3" ry="3" x="-19.390625" y="-10.960000038146973" width="38.78125" height="20"  pointer-events="none" style="display: block;"></rect><text joint-selector="text" id="v-226" font-size="16.799999999999997px" xml:space="preserve" fill="#444444" text-anchor="middle" pointer-events="none" font-family="Tahoma, Verdana, Helvetica, Arial" font-weight="normal"  style="display: block;"><tspan dy="0.3em" >[JPA]</tspan></text></g><g id="v-223"  label-idx="2" cursor="move" transform="matrix(1,0,0,1,2439,493.3999938964844)" style="cursor: default;"><rect joint-selector="rect" id="v-229" fill="#ffffff" rx="3" ry="3" x="0" y="0" width="0" height="0"  display="none"></rect><text joint-selector="text" id="v-228" fill="#000000" font-size="14" text-anchor="middle" text-vertical-anchor="middle" pointer-events="none"></text></g></g></g><!--z-index:25--></g><g  style="user-select: none;"></g><g ></g><g  display="none"></g></g></svg>